<?xml version="1.0" encoding="UTF-8" standalone="no"?>
<!-- Created with Inkscape (http://www.inkscape.org/) -->

<svg
   id="svg2"
   version="1.1"
   width="5341.2476"
   height="773.31049"
   xmlns:xlink="http://www.w3.org/1999/xlink"
   xmlns="http://www.w3.org/2000/svg"
   xmlns:svg="http://www.w3.org/2000/svg"
   xmlns:rdf="http://www.w3.org/1999/02/22-rdf-syntax-ns#"
   xmlns:cc="http://creativecommons.org/ns#"
   xmlns:dc="http://purl.org/dc/elements/1.1/">
  <metadata
     id="metadata8">
    <rdf:RDF>
      <cc:Work
         rdf:about="">
        <dc:format>image/svg+xml</dc:format>
        <dc:type
           rdf:resource="http://purl.org/dc/dcmitype/StillImage" />
      </cc:Work>
    </rdf:RDF>
  </metadata>
  <defs
     id="defs6">
    <linearGradient
       id="linearGradient8708">
      <stop
         style="stop-color:#476209;stop-opacity:1"
         offset="0"
         id="stop8710" />
      <stop
         style="stop-color:#7ead10;stop-opacity:1"
         offset="1"
         id="stop8712" />
    </linearGradient>
    <linearGradient
       id="linearGradient3946">
      <stop
         id="stop3948"
         offset="0"
         style="stop-color:#314610;stop-opacity:1;" />
      <stop
         id="stop3950"
         offset="1"
         style="stop-color:#8afa00;stop-opacity:0" />
    </linearGradient>
    <linearGradient
       id="linearGradient3928">
      <stop
         style="stop-color:#314610;stop-opacity:1;"
         offset="0"
         id="stop3930" />
      <stop
         style="stop-color:#6aa027;stop-opacity:1"
         offset="1"
         id="stop3932" />
    </linearGradient>
    <linearGradient
       id="linearGradient877">
      <stop
         id="stop879"
         offset="0"
         style="stop-color:#a0b2d5;stop-opacity:1;" />
    </linearGradient>
    <linearGradient
       id="linearGradient883">
      <stop
         id="stop885"
         offset="0"
         style="stop-color:#8893a3;stop-opacity:1;" />
    </linearGradient>
    <linearGradient
       id="linearGradient901">
      <stop
         id="stop903"
         offset="0"
         style="stop-color:#859cca;stop-opacity:1;" />
    </linearGradient>
    <linearGradient
       id="linearGradient889">
      <stop
         id="stop891"
         offset="0"
         style="stop-color:#889ecc;stop-opacity:1;" />
    </linearGradient>
    <linearGradient
       id="linearGradient895">
      <stop
         id="stop897"
         offset="0"
         style="stop-color:#748397;stop-opacity:1;" />
    </linearGradient>
    <linearGradient
       id="linearGradient907">
      <stop
         id="stop909"
         offset="0"
         style="stop-color:#738289;stop-opacity:1;" />
    </linearGradient>
    <linearGradient
       id="linearGradient913">
      <stop
         id="stop915"
         offset="0"
         style="stop-color:#5f70a9;stop-opacity:1;" />
    </linearGradient>
    <linearGradient
       id="linearGradient919">
      <stop
         id="stop921"
         offset="0"
         style="stop-color:#7a8088;stop-opacity:1;" />
    </linearGradient>
    <linearGradient
       id="linearGradient925">
      <stop
         id="stop927"
         offset="0"
         style="stop-color:#778ab9;stop-opacity:1;" />
    </linearGradient>
    <linearGradient
       id="linearGradient931">
      <stop
         id="stop933"
         offset="0"
         style="stop-color:#666d8a;stop-opacity:1;" />
    </linearGradient>
    <linearGradient
       id="linearGradient3770">
      <stop
         id="stop3772"
         offset="0"
         style="stop-color:#915377;stop-opacity:1;" />
    </linearGradient>
    <linearGradient
       id="linearGradient3482">
      <stop
         id="stop3484"
         offset="0"
         style="stop-color:#784961;stop-opacity:1;" />
    </linearGradient>
    <linearGradient
       id="linearGradient4177">
      <stop
         id="stop4179"
         offset="0"
         style="stop-color:#784961;stop-opacity:1;" />
    </linearGradient>
    <linearGradient
       id="linearGradient4078">
      <stop
         id="stop4080"
         offset="0"
         style="stop-color:#bf7d9a;stop-opacity:1;" />
    </linearGradient>
    <linearGradient
       xlink:href="#linearGradient3928"
       id="linearGradient14663"
       gradientUnits="userSpaceOnUse"
       gradientTransform="matrix(2.3385837,0,0,2.3385837,-3289.8886,4840.2203)"
       x1="2267.8071"
       y1="-3158.813"
       x2="2267.8071"
       y2="-3881.9294" />
    <linearGradient
       xlink:href="#linearGradient8708"
       id="linearGradient14665"
       gradientUnits="userSpaceOnUse"
       gradientTransform="matrix(2.3385837,0,0,2.3385837,-3289.8886,4840.2203)"
       x1="2079.2935"
       y1="-3004.1321"
       x2="2300.3191"
       y2="-3711.2927" />
    <linearGradient
       xlink:href="#linearGradient3928"
       id="linearGradient14667"
       gradientUnits="userSpaceOnUse"
       gradientTransform="matrix(2.3385837,0,0,2.3385837,-3289.8886,4840.2203)"
       x1="1731.9751"
       y1="-3218.1021"
       x2="1777.1711"
       y2="-3530.9749" />
    <linearGradient
       xlink:href="#linearGradient3946"
       id="linearGradient14669"
       gradientUnits="userSpaceOnUse"
       gradientTransform="matrix(2.3385837,0,0,2.3385837,-3289.8886,4840.2203)"
       x1="1731.9751"
       y1="-3218.1021"
       x2="1748.7362"
       y2="-3625.9541" />
    <clipPath
       clipPathUnits="userSpaceOnUse"
       id="clipPath1">
      <rect
         style="fill:none;stroke:#f4b536;stroke-width:13.2464;stroke-linecap:round;stroke-linejoin:miter;stroke-miterlimit:4;stroke-dasharray:none;stroke-dashoffset:0;stroke-opacity:1"
         id="rect1"
         width="4617.1494"
         height="2115.7373"
         x="108.82433"
         y="-5424.0659" />
    </clipPath>
  </defs>
  <g
     id="g14605"
     clip-path="url(#clipPath1)"
     transform="matrix(1.156828,0,0,1.156828,-125.89104,4600.4776)">
    <g
       transform="matrix(2.3385837,0,0,2.3385837,-3289.8886,4840.2203)"
       style="fill:#558d66;fill-opacity:1"
       id="g8700">
      <path
         id="path8666"
         d="m 3292.1995,-3610.4925 c 0.8832,-11.0639 -10.9281,-2.942 -12.2528,-11.4329 2.0178,-4.3152 4.5743,-2.901 1.9907,-9.4141 -4.6822,-8.6941 9.9276,-14.6171 13.7546,-2.723 -0.061,10.5825 8.8586,-4.3258 8.7591,6.4377 2.3131,10.9446 -14.292,3.4385 -7.079,14.9934 0.6887,3.1287 -3.4006,4.7388 -5.1726,2.1389 z"
         style="fill:#558d66;fill-opacity:1;stroke:none" />
      <path
         id="path8666-7"
         d="m 3341.1208,-3617.7743 c 0.8832,-11.0639 -15.4676,-2.5928 -16.7923,-11.0837 2.0178,-4.3152 8.0662,-7.4405 5.4826,-13.9536 -4.6822,-8.6941 12.0227,-11.8236 15.8497,0.07 -0.061,10.5825 5.716,-1.5322 5.6165,9.2313 2.3131,10.9446 -12.1969,2.0417 -4.9839,13.5966 0.6887,3.1287 -3.4006,4.7388 -5.1726,2.1389 z"
         style="fill:#558d66;fill-opacity:1;stroke:none" />
      <path
         id="path8666-71"
         d="m 3382.3251,-3621.2662 c 0.8832,-11.0639 -10.579,-1.8944 -11.9037,-10.3853 2.0178,-4.3152 8.0663,-5.3454 5.4827,-11.8585 -4.6822,-8.6941 5.0389,-19.5057 8.8659,-7.6116 -0.061,10.5825 14.0965,-0.1355 13.997,10.628 2.3131,10.9446 -18.4823,5.5336 -11.2693,17.0885 0.6887,3.1287 -3.4006,4.7388 -5.1726,2.1389 z"
         style="fill:#558d66;fill-opacity:1;stroke:none" />
      <path
         id="path8666-2"
         d="m 3431.9098,-3623.3613 c 0.8832,-11.0639 -15.4676,-2.5928 -16.7923,-11.0837 2.0178,-4.3152 9.1138,-3.2502 6.5302,-9.7633 -4.6822,-8.6941 8.88,-20.9025 12.707,-9.0084 -0.061,10.5825 14.0965,-0.1355 13.997,10.628 2.3131,10.9446 -18.4823,5.5336 -11.2693,17.0885 0.6887,3.1287 -3.4006,4.7388 -5.1726,2.1389 z"
         style="fill:#558d66;fill-opacity:1;stroke:none" />
      <path
         style="fill:#3e744f;fill-opacity:1;stroke:none"
         d="m 3152.5927,-3590.1235 c 154.9705,-35.2067 313.8672,-42.9295 474.074,-41.4815 l 41.4815,250.8642 -541.2346,-75.0618 z"
         id="path8653" />
      <path
         style="fill:#558d66;fill-opacity:1;stroke:none"
         d="m 3245.1369,-3610.1326 c -1.7446,-10.9611 -15.6435,1.119 -18.9287,-6.8219 0.946,-4.6688 8.0934,-5.3031 4.0499,-11.0256 -6.5962,-7.3484 3.7131,-22.4049 10.231,-11.7451 2.4306,10.2998 13.6689,-3.4481 16.1045,7.0366 4.8231,10.0932 -16.6616,9.7266 -6.9326,19.2602 1.4055,2.8788 -2.1902,5.4058 -4.5241,3.2958 z"
         id="path8655" />
    </g>
    <path
       id="path3914"
       d="m 54.932257,-3896.2352 c 458.502493,-86.0845 968.384843,-95.6848 1506.120443,-63.8223 1111.9013,65.8835 2342.8918,309.0441 3484.9792,419.8628 v 852.5374 H 58.198557 Z"
       style="fill:url(#linearGradient14663);fill-opacity:1;stroke:none" />
    <path
       style="opacity:0.544747;fill:url(#linearGradient14665);fill-opacity:1;stroke:none"
       d="M -22.805306,-3848.7278 C 2022.0616,-4112.3871 3720.104,-3132.2732 4990.5988,-2801.0868 l 138.5828,-117.5416 c -1769.4007,1374.6436 -3160.1724,224.6979 -5200.983509,267.0309 z"
       id="path3918" />
    <path
       id="path3936"
       d="m -101.85645,-2991.4351 c 264.2174,-535.4005 2472.96015,333.6965 4154.89455,483.4311 0,0 -1633.2131,888.4682 -1685.476,901.5338 -52.2629,13.0657 -2377.958413,-875.4022 -2417.155648,-940.7308 -39.197002,-65.3286 -52.262902,-444.2341 -52.262902,-444.2341 z"
       style="fill:url(#linearGradient14667);fill-opacity:1;stroke:url(#linearGradient14669);stroke-width:2.33858" />
  </g>
</svg>
